<svg width="20" height="19" viewBox="0 0 22 16" fill="none" xmlns="http://www.w3.org/2000/svg">
<path d="M3.8223 0.738357L3.82229 0.738359C2.48146 1.09089 1.44633 1.79886 0.90513 2.72173C0.404744 3.575 0.35597 4.56738 0.825425 5.50467L0.795747 5.54679L1.01744 5.83819L1.3571 6.28464L1.35711 6.28465C2.47668 7.75611 3.31556 9.292 3.8632 10.8629L4.40219 12.409L4.40729 12.4237L4.41328 12.438C4.57062 12.8128 4.899 13.0763 5.24814 13.2411C5.60477 13.4094 6.03251 13.5 6.47534 13.5C6.95017 13.5 7.40635 13.3961 7.77665 13.2045C8.13798 13.0175 8.47626 12.7132 8.58992 12.2839C8.58993 12.2839 8.58993 12.2839 8.58993 12.2839L9.34896 9.41741C9.34951 9.41764 9.37088 9.36942 9.48517 9.31029C9.60693 9.24729 9.78736 9.19969 10 9.19969C10.2126 9.19969 10.3931 9.24729 10.5148 9.31029C10.6291 9.36942 10.6505 9.41765 10.651 9.41741L11.4101 12.2839C11.5237 12.7132 11.862 13.0175 12.2233 13.2045C12.5936 13.3961 13.0498 13.5 13.5247 13.5C13.9675 13.5 14.3952 13.4094 14.7519 13.2411C15.101 13.0763 15.4294 12.8128 15.5867 12.438L15.5927 12.4237L15.5978 12.409L16.1368 10.8629C16.6844 9.29198 17.5232 7.75611 18.6429 6.28466L18.6429 6.28463L18.9826 5.8382L19.1943 5.55991L19.1677 5.5184C19.6445 4.57707 19.5977 3.57915 19.0948 2.72172C18.5536 1.79886 17.5185 1.0909 16.1777 0.738359L16.1777 0.738357C14.9032 0.403289 13.5317 0.434245 12.3076 0.751241C10.9766 1.09592 9.02333 1.09592 7.69233 0.751241C6.46828 0.434244 5.09674 0.403289 3.8223 0.738357ZM19.0081 5.80014C19.0083 5.79984 19.0085 5.79953 19.0087 5.79923L19.0057 5.80392L19.0081 5.80014Z" fill="none" stroke="black"/>
</svg>
