<svg width="19" height="19" viewBox="0 0 60 60" fill="#FEAF00" xmlns="http://www.w3.org/2000/svg">
<path d="M58 60H2C0.896 60 0 59.104 0 58V2C0 0.896 0.896 0 2 0H46C46.53 0 47.039 0.211 47.414 0.586L59.414 12.586C59.789 12.961 60 13.47 60 14V18C60 19.104 59.104 20 58 20C56.896 20 56 19.104 56 18V14.829L45.172 4H4V56H56V34C56 32.896 56.896 32 58 32C59.104 32 60 32.896 60 34V58C60 59.104 59.104 60 58 60Z" fill="#FEAF00"/>
<path d="M50 60H10C8.896 60 8 59.104 8 58V34C8 32.896 8.896 32 10 32H50C51.104 32 52 32.896 52 34V58C52 59.104 51.104 60 50 60ZM12 56H48V36H12V56Z" fill="#FEAF00"/>
<path d="M42 24H10C8.896 24 8 23.104 8 22V2C8 0.896 8.896 0 10 0H42C43.104 0 44 0.896 44 2V22C44 23.104 43.104 24 42 24ZM12 20H40V4H12V20Z" fill="#FEAF00"/>
<path d="M42 52H18C16.896 52 16 51.104 16 50C16 48.896 16.896 48 18 48H42C43.104 48 44 48.896 44 50C44 51.104 43.104 52 42 52Z" fill="#FEAF00"/>
<path d="M34 16C32.896 16 32 15.104 32 14V10C32 8.896 32.896 8 34 8C35.104 8 36 8.896 36 10V14C36 15.104 35.104 16 34 16Z" fill="#FEAF00"/>
<path d="M42 44H18C16.896 44 16 43.104 16 42C16 40.896 16.896 40 18 40H42C43.104 40 44 40.896 44 42C44 43.104 43.104 44 42 44Z" fill="#FEAF00"/>
<path d="M58 24C59.105 24 60 24.895 60 26C60 27.105 59.105 28 58 28C56.895 28 56 27.105 56 26C56 24.895 56.895 24 58 24Z" fill="#FEAF00"/>
</svg>
